<svg xmlns="http://www.w3.org/2000/svg" viewBox="0 0 48 48" width="48px" height="48px"><radialGradient id="fbmulT4nq6FOWp76AQnD9a" cx="23.685" cy="27.02" r="18.39" gradientTransform="matrix(1 0 0 .827 0 4.674)" gradientUnits="userSpaceOnUse"><stop offset=".565" stop-color="#5b3f1d"/><stop offset=".776" stop-color="#5d411e"/><stop offset=".873" stop-color="#654620"/><stop offset=".948" stop-color="#715025"/><stop offset="1" stop-color="#805b2a"/></radialGradient><path fill="url(#fbmulT4nq6FOWp76AQnD9a)" d="M5.931,24.441c-0.117,1.853,0.276,1.697,0.991,2.624c0,0,8.046,11.136,32.321,3.512	c1.755-0.628,3.019-1.821,2.838-3.256C38.967,2.649,7.833,6.274,5.931,24.441z"/><radialGradient id="fbmulT4nq6FOWp76AQnD9b" cx="23.991" cy="26.026" r="19.29" gradientTransform="matrix(1 0 0 .6797 0 8.336)" gradientUnits="userSpaceOnUse"><stop offset="0" stop-color="#f0f0de"/><stop offset=".489" stop-color="#eed"/><stop offset=".665" stop-color="#e7e8d8"/><stop offset=".79" stop-color="#dcdccf"/><stop offset=".892" stop-color="#cbccc2"/><stop offset=".978" stop-color="#b5b7b2"/><stop offset="1" stop-color="#aeb0ad"/></radialGradient><path fill="url(#fbmulT4nq6FOWp76AQnD9b)" d="M6.288,23.935c-0.605,1.254-0.414,2.257,0,3.267c1.729,4.404,15.625,20.091,34.374,3.623	c1.399-1.163,1.619-2.19,1.273-3.64c-0.346-1.45-5.205-13.317-17.933-13.317C11.401,13.868,7.341,22.23,6.288,23.935z"/><radialGradient id="fbmulT4nq6FOWp76AQnD9c" cx="9.051" cy="30.712" r="15.608" gradientTransform="matrix(1.038 0 0 .6199 14.596 6.915)" gradientUnits="userSpaceOnUse"><stop offset="0" stop-color="#fff"/><stop offset=".859" stop-color="#fff" stop-opacity=".141"/><stop offset="1" stop-color="#fff" stop-opacity="0"/></radialGradient><path fill="url(#fbmulT4nq6FOWp76AQnD9c)" d="M7.015,23.951c-0.58,1.2-0.397,2.16,0,3.126c1.658,4.214,14.984,19.223,32.963,3.466	c1.341-1.113,1.553-2.095,1.221-3.483c-0.332-1.387-4.991-12.742-17.196-12.742C11.918,14.319,8.025,22.32,7.015,23.951z"/><radialGradient id="fbmulT4nq6FOWp76AQnD9d" cx="23.686" cy="26.026" r="11.529" gradientUnits="userSpaceOnUse"><stop offset="0" stop-color="#896642"/><stop offset="1" stop-color="#3a2313"/></radialGradient><circle cx="23.686" cy="26.026" r="10.104" fill="url(#fbmulT4nq6FOWp76AQnD9d)"/><radialGradient id="fbmulT4nq6FOWp76AQnD9e" cx="23.686" cy="26.026" r="11.362" gradientUnits="userSpaceOnUse"><stop offset="0" stop-color="#8f6b46"/><stop offset="1" stop-color="#3f2715"/><stop offset="1" stop-color="#3f2715"/></radialGradient><circle cx="23.686" cy="26.026" r="9.78" fill="url(#fbmulT4nq6FOWp76AQnD9e)"/><radialGradient id="fbmulT4nq6FOWp76AQnD9f" cx="23.686" cy="26.026" r="11.181" gradientUnits="userSpaceOnUse"><stop offset="0" stop-color="#94704a"/><stop offset="1" stop-color="#452a16"/><stop offset="1" stop-color="#452a16"/></radialGradient><circle cx="23.686" cy="26.026" r="9.455" fill="url(#fbmulT4nq6FOWp76AQnD9f)"/><radialGradient id="fbmulT4nq6FOWp76AQnD9g" cx="23.686" cy="26.026" r="10.988" gradientUnits="userSpaceOnUse"><stop offset="0" stop-color="#9a754e"/><stop offset="1" stop-color="#4a2e18"/><stop offset="1" stop-color="#4a2e18"/></radialGradient><circle cx="23.686" cy="26.026" r="9.131" fill="url(#fbmulT4nq6FOWp76AQnD9g)"/><radialGradient id="fbmulT4nq6FOWp76AQnD9h" cx="23.686" cy="26.026" r="10.78" gradientUnits="userSpaceOnUse"><stop offset="0" stop-color="#9f7a52"/><stop offset="1" stop-color="#4f3219"/><stop offset="1" stop-color="#4f3219"/></radialGradient><circle cx="23.686" cy="26.026" r="8.807" fill="url(#fbmulT4nq6FOWp76AQnD9h)"/><radialGradient id="fbmulT4nq6FOWp76AQnD9i" cx="23.686" cy="26.026" r="10.56" gradientUnits="userSpaceOnUse"><stop offset="0" stop-color="#a57f56"/><stop offset="1" stop-color="#55361b"/><stop offset="1" stop-color="#55361b"/></radialGradient><circle cx="23.686" cy="26.026" r="8.483" fill="url(#fbmulT4nq6FOWp76AQnD9i)"/><radialGradient id="fbmulT4nq6FOWp76AQnD9j" cx="23.686" cy="26.026" r="10.325" gradientUnits="userSpaceOnUse"><stop offset="0" stop-color="#aa8359"/><stop offset="1" stop-color="#5a391c"/><stop offset="1" stop-color="#5a391c"/></radialGradient><circle cx="23.686" cy="26.026" r="8.158" fill="url(#fbmulT4nq6FOWp76AQnD9j)"/><radialGradient id="fbmulT4nq6FOWp76AQnD9k" cx="23.686" cy="26.026" r="10.078" gradientUnits="userSpaceOnUse"><stop offset="0" stop-color="#b0885d"/><stop offset="1" stop-color="#603d1e"/><stop offset="1" stop-color="#603d1e"/></radialGradient><circle cx="23.686" cy="26.026" r="7.834" fill="url(#fbmulT4nq6FOWp76AQnD9k)"/><radialGradient id="fbmulT4nq6FOWp76AQnD9l" cx="23.686" cy="26.026" r="9.816" gradientUnits="userSpaceOnUse"><stop offset="0" stop-color="#b58d61"/><stop offset="1" stop-color="#65411f"/><stop offset="1" stop-color="#65411f"/></radialGradient><circle cx="23.686" cy="26.026" r="7.51" fill="url(#fbmulT4nq6FOWp76AQnD9l)"/><radialGradient id="fbmulT4nq6FOWp76AQnD9m" cx="23.686" cy="26.026" r="9.542" gradientUnits="userSpaceOnUse"><stop offset="0" stop-color="#bb9265"/><stop offset="1" stop-color="#6a4521"/><stop offset="1" stop-color="#6a4521"/></radialGradient><circle cx="23.686" cy="26.026" r="7.186" fill="url(#fbmulT4nq6FOWp76AQnD9m)"/><radialGradient id="fbmulT4nq6FOWp76AQnD9n" cx="23.686" cy="26.026" r="9.254" gradientUnits="userSpaceOnUse"><stop offset="0" stop-color="#c09769"/><stop offset="1" stop-color="#704822"/><stop offset="1" stop-color="#704822"/></radialGradient><circle cx="23.686" cy="26.026" r="6.861" fill="url(#fbmulT4nq6FOWp76AQnD9n)"/><radialGradient id="fbmulT4nq6FOWp76AQnD9o" cx="23.686" cy="26.026" r="8.952" gradientUnits="userSpaceOnUse"><stop offset="0" stop-color="#c69c6d"/><stop offset="1" stop-color="#754c24"/></radialGradient><circle cx="23.686" cy="26.026" r="6.537" fill="url(#fbmulT4nq6FOWp76AQnD9o)"/><radialGradient id="fbmulT4nq6FOWp76AQnD9p" cx="23.686" cy="26.026" r="9.063" gradientUnits="userSpaceOnUse"><stop offset="0" stop-color="#754c24"/><stop offset="1" stop-color="#c69c6d" stop-opacity="0"/></radialGradient><polygon fill="url(#fbmulT4nq6FOWp76AQnD9p)" points="29.189,34.435 24.801,28.794 25.552,35.901 23.657,29.01 21.631,35.864 22.518,28.772 18.023,34.329 21.556,28.116 15.277,31.53 20.918,27.142 13.811,27.893 20.702,25.998 13.849,23.972 20.94,24.858 15.384,20.364 21.596,23.896 18.183,17.617 22.57,23.259 21.82,16.152 23.714,23.043 25.741,16.189 24.854,23.281 29.349,17.724 25.816,23.937 32.095,20.523 26.453,24.911 33.561,24.16 26.67,26.055 33.523,28.081 26.432,27.195 31.988,31.689 25.775,28.156"/><radialGradient id="fbmulT4nq6FOWp76AQnD9q" cx="-9.993" cy="-49.737" r="7.809" gradientTransform="rotate(11.068 -384.275 162.046)" gradientUnits="userSpaceOnUse"><stop offset=".114" stop-color="#754c24"/><stop offset="1" stop-color="#c69c6d" stop-opacity="0"/></radialGradient><polygon fill="url(#fbmulT4nq6FOWp76AQnD9q)" points="26.958,34.069 24.173,28.558 23.631,34.709 23.167,28.552 20.313,34.027 22.24,28.161 17.507,32.128 21.533,27.445 15.643,29.299 21.154,26.513 15.003,25.972 21.161,25.508 15.685,22.653 21.551,24.581 17.585,19.848 22.267,23.874 20.414,17.984 23.199,23.495 23.741,17.344 24.205,23.501 27.059,18.025 25.132,23.892 29.864,19.925 25.838,24.608 31.729,22.754 26.218,25.539 32.369,26.081 26.211,26.545 31.687,29.4 25.82,27.472 29.787,32.205 25.105,28.179"/><radialGradient id="fbmulT4nq6FOWp76AQnD9r" cx="23.686" cy="26.026" r="5.087" gradientUnits="userSpaceOnUse"><stop offset="0" stop-color="#1c1911"/><stop offset=".999" stop-color="#171714"/></radialGradient><circle cx="23.686" cy="26.026" r="5.087" fill="url(#fbmulT4nq6FOWp76AQnD9r)"/><radialGradient id="fbmulT4nq6FOWp76AQnD9s" cx="19.698" cy="21.53" r="2.494" gradientUnits="userSpaceOnUse"><stop offset="0" stop-color="#f0f0de"/><stop offset=".425" stop-color="#f5f5e9" stop-opacity=".575"/><stop offset="1" stop-color="#fff" stop-opacity="0"/></radialGradient><circle cx="19.698" cy="21.53" r="2.494" fill="url(#fbmulT4nq6FOWp76AQnD9s)"/></svg>