<svg xmlns="http://www.w3.org/2000/svg" viewBox="0 0 100 100" width="200px" height="200px"><path fill="#fff" d="M20.4 55.6A.9.9 0 1 0 20.4 57.4.9.9 0 1 0 20.4 55.6zM79.4 30.900000000000002A.7.7 0 1 0 79.4 32.300000000000004.7.7 0 1 0 79.4 30.900000000000002z"/><path fill="#f1bc19" d="M76.8 11.7A.9.9 0 1 0 76.8 13.5.9.9 0 1 0 76.8 11.7zM20.9 63.300000000000004A.9.9 0 1 0 20.9 65.10000000000001.9.9 0 1 0 20.9 63.300000000000004z"/><path fill="#e4e4f9" d="M49.7 12.299999999999997A37.5 37.5 0 1 0 49.7 87.3A37.5 37.5 0 1 0 49.7 12.299999999999997Z"/><path fill="#f1bc19" d="M82.3 10.7A4 4 0 1 0 82.3 18.7A4 4 0 1 0 82.3 10.7Z"/><path fill="#8889b9" d="M86.3 21.900000000000002A1.9 1.9 0 1 0 86.3 25.7A1.9 1.9 0 1 0 86.3 21.900000000000002Z"/><path fill="#fbcd59" d="M77.3 74.3A1.9 1.9 0 1 0 77.3 78.10000000000001 1.9 1.9 0 1 0 77.3 74.3zM14.1 59.3A4 4 0 1 0 14.1 67.3 4 4 0 1 0 14.1 59.3z"/><path fill="#8889b9" d="M24.4 85.5A1.9 1.9 0 1 0 24.4 89.30000000000001A1.9 1.9 0 1 0 24.4 85.5Z"/><path fill="#fff" d="M18.1 52.1A2.5 2.5 0 1 0 18.1 57.1A2.5 2.5 0 1 0 18.1 52.1Z"/><path fill="#cbc9bc" d="M26.4,49.2l8.5-13.3h25.5l8.5,13.3V61c0,1.7-1.4,3.1-3.1,3.1c0,0,0,0,0,0 H29.5c-1.7,0-3.1-1.4-3.2-3.1V49.2z"/><path fill="#472b29" d="M29.5,64.6c-2,0-3.6-1.6-3.6-3.6v-12l8.7-13.6h26l8.7,13.6V61c0,1-0.4,1.9-1.1,2.6 c-0.7,0.7-1.6,1-2.6,1H29.5C29.5,64.6,29.5,64.6,29.5,64.6z M26.9,49.3V61c0,1.4,1.2,2.6,2.6,2.6c0,0,0,0,0,0h36.1 c0.7,0,1.4-0.3,1.9-0.8c0.5-0.5,0.8-1.1,0.8-1.8V49.3l-8.3-12.9H35.1L26.9,49.3z"/><path fill="#efeddf" d="M33.2,37.9H62c1.9,0,3.4,1.5,3.4,3.4v12.8c0,1.9-1.5,3.4-3.4,3.4H33.2c-1.9,0-3.4-1.5-3.4-3.4 V41.2C29.8,39.4,31.3,37.9,33.2,37.9z"/><path fill="#472b29" d="M62,57.8H33.2c-2.1,0-3.8-1.7-3.8-3.8V41.2c0-2.1,1.7-3.8,3.8-3.8H62c2.1,0,3.8,1.7,3.8,3.8v12.8 C65.8,56.2,64.1,57.8,62,57.8z M33.2,38.2c-1.7,0-3,1.3-3,3v12.8c0,1.7,1.3,3,3,3H62c1.7,0,3-1.3,3-3V41.2c0-1.7-1.3-3-3-3H33.2 z"/><path fill="#efeddf" d="M33.2,40.7H62c1.9,0,3.4,1.5,3.4,3.4V57c0,1.9-1.5,3.4-3.4,3.4H33.2c-1.9,0-3.4-1.5-3.4-3.4V44.1 C29.8,42.3,31.3,40.7,33.2,40.7z"/><path fill="#472b29" d="M62,60.7H33.2c-2.1,0-3.8-1.7-3.8-3.8V44.1c0-2.1,1.7-3.8,3.8-3.8H62c2.1,0,3.8,1.7,3.8,3.8V57 C65.8,59,64.1,60.7,62,60.7z M33.2,41.1c-1.7,0-3,1.3-3,3V57c0,1.7,1.3,3,3,3H62c1.7,0,3-1.3,3-3V44.1c0-1.7-1.3-3-3-3H33.2z"/><path fill="#efeddf" d="M33.2,43.6H62c1.9,0,3.4,1.5,3.4,3.4v12.8c0,1.9-1.5,3.4-3.4,3.4H33.2c-1.9,0-3.4-1.5-3.4-3.4V47 C29.8,45.1,31.3,43.6,33.2,43.6z"/><path fill="#472b29" d="M62,63.6H33.2c-2.1,0-3.8-1.7-3.8-3.8V47c0-2.1,1.7-3.8,3.8-3.8H62c2.1,0,3.8,1.7,3.8,3.8v12.8 C65.8,61.9,64.1,63.6,62,63.6z M33.2,44c-1.7,0-3,1.3-3,3v12.8c0,1.7,1.3,3,3,3H62c1.7,0,3-1.3,3-3V47c0-1.7-1.3-3-3-3H33.2z"/><path fill="#cbc9bc" d="M62.7 46.1H42.9c-.1 0-.2-.1-.2-.2s.1-.2.2-.2h19.8c.1 0 .2.1.2.2S62.8 46.1 62.7 46.1zM41.1 46.1h-9.5c-.1 0-.2-.1-.2-.2s.1-.2.2-.2h9.5c.1 0 .2.1.2.2S41.2 46.1 41.1 46.1zM57.5 48.1h-6.1c-.1 0-.2-.1-.2-.2s.1-.2.2-.2h6.1c.1 0 .2.1.2.2S57.6 48.1 57.5 48.1zM49.8 48.1h-13c-.1 0-.2-.1-.2-.2s.1-.2.2-.2h13c.1 0 .2.1.2.2S49.9 48.1 49.8 48.1zM52.3 50h-7.2C45 50 45 49.9 45 49.8s.1-.2.2-.2h7.2c.1 0 .2.1.2.2S52.4 50 52.3 50zM44.1 50H42c-.1 0-.2-.1-.2-.2s.1-.2.2-.2h2.1c.1 0 .2.1.2.2S44.2 50 44.1 50zM50.9 51.9h-1.6c-.1 0-.2-.1-.2-.2s.1-.2.2-.2h1.6c.1 0 .2.1.2.2S51 51.9 50.9 51.9zM47.7 51.9h-4.3c-.1 0-.2-.1-.2-.2s.1-.2.2-.2h4.3c.1 0 .2.1.2.2S47.8 51.9 47.7 51.9z"/><path fill="#f1bc19" d="M66.6,49.2H55.2v3.3c0,1.8-1.5,3.3-3.3,3.3c0,0,0,0,0,0h-8.4c-1.8,0-3.4-1.4-3.4-3.3c0,0,0,0,0,0 v-3.3H26.6V61c0,1.7,1.4,3.1,3.2,3.1h35.7c1.7,0,3.1-1.4,3.2-3.1V49.2H66.6z"/><path fill="#472b29" d="M29.7,64.6c-2,0-3.6-1.6-3.6-3.6V48.7h14.4v3.8c0,1.6,1.3,2.8,2.9,2.8h8.4c0,0,0,0,0,0 c1.6,0,2.8-1.3,2.9-2.8v-3.8h14.5V61c0,2-1.7,3.6-3.7,3.6H29.7C29.7,64.6,29.7,64.6,29.7,64.6z M27.1,49.7V61 c0,1.4,1.2,2.6,2.7,2.6h35.7c0,0,0,0,0,0c1.4,0,2.6-1.2,2.6-2.6V49.7H55.7v2.8c0,1-0.4,2-1.1,2.7c-0.7,0.7-1.7,1.1-2.7,1.1 c0,0,0,0,0,0h-8.4c-2.1,0-3.9-1.7-3.9-3.8l0-2.8H27.1z"/><path fill="#dba179" d="M78.2,59.6c-0.1-1.5-1.2-2.8-2.7-3.2l-0.3-0.1l-0.5-0.2c-1-0.4-6.9-2.6-6.9-2.6 c-0.4-0.1-0.8-0.4-1-0.9c-0.2-0.8-0.2-1.5-0.2-2.3c-1.3,0.4-2.6,0.8-4,1.1c-1.5,0.2-4.8-1.8-4.8-1.8s-0.1,2.4-0.2,3 c-0.1,0.5-0.5,0.8-1,0.9l-5.7,2c-0.6,0.2-1.2,0.4-1.8,0.7c-1.2,0.8-2.1,1.9-2.5,3.3c0,0-0.4,2.6-0.4,2.7c0,0.4-0.1,0.8-0.1,1.2 c6.2,4.2,11.1,5.3,19.7,5c3.9-0.2,9.6-2.1,12.6-3.6C78.5,61.5,78.2,59.6,78.2,59.6z"/><path fill="#8889b9" d="M75.5,56.4l-0.3-0.1l-0.5-0.2c-0.6-0.3-3.1-1.2-4.9-1.9h-0.1c-2,1-4.8,2.6-7.5,2.6 s-5.2-1.4-7.5-2.6l-0.3,0.1l-3.5,1.3c-0.6,0.1-1.2,0.4-1.8,0.7c-1.2,0.8-2.1,1.9-2.5,3.3c0,0-0.4,2.6-0.4,2.7 c0,0.4-0.1,4.3-0.1,4.8c6.2,4.2,11.1,5.3,19.7,5c3.9-0.2,9.6-2.1,12.6-3.6c-0.2-3.4-0.4-8.9-0.4-8.9C78.1,58.1,77,56.8,75.5,56.4 z"/><path fill="#606396" d="M51.8 70.5c-.2 0-.3-.1-.3-.3v-3.2c0-.2.1-.3.3-.3s.3.1.3.3v3.2C52 70.4 51.9 70.5 51.8 70.5zM72.7 71.1c-.2 0-.3-.1-.3-.3v-3.7c0-.2.1-.3.3-.3s.3.1.3.3v3.7C73 70.9 72.9 71.1 72.7 71.1z"/><path fill="#edbc94" d="M72.1,38.5h-0.3c-0.8,0-0.7,0.3-0.7-0.2c0.1-0.8-0.3-4.3-0.3-4.4c0-3.5-3.7-6.4-8.3-6.6h-0.2 c-4.6,0.2-8.3,3-8.3,6.6c0,0.2-0.1,3.6-0.1,4.4c0,0.5-0.2,0.2-1,0.2h-0.3c-0.7,0-1.4,0.5-1.6,1.3c0.3,1.4,0.6,2.8,1.1,4.1 c0.3,0.6,0.9,0.7,1.4,1.1c0.3,0.2,0.4,0.5,0.5,0.8c0.4,1.3,1.1,2.4,2.1,3.3c0.5,0.5,3.6,3.8,6.3,3.6s5.8-3.2,6.3-3.6 c1-0.9,1.7-2,2.1-3.3c0-0.3,0.2-0.6,0.4-0.8c0.6-0.4,1.1-0.5,1.4-1.1c0.5-1.3,0.9-2.7,1.1-4.1C73.5,39,72.8,38.5,72.1,38.5z"/><path fill="#512c2b" d="M62.4 44.1c.5 0 1.1-.2 1.4-.6 0 0 0-.1 0-.1l0 0c0 0-.1 0-.1 0-.7.7-1.8.7-2.5 0 0 0 0 0-.1 0H61c0 0 0 .1 0 .1C61.4 43.9 61.9 44.1 62.4 44.1zM60.7 36.8l.3-.7c-1.5-.3-3-.3-4.5.1l.4.7C58.1 36.5 59.4 36.5 60.7 36.8zM68 36.8l.3-.7c-1.5-.3-3-.3-4.5.1l.4.7C65.5 36.5 66.8 36.5 68 36.8zM58.6 37.7c-.4 0-.7.2-.8.6 0 0 .1 0 .1 0 .3 0 .6.3.6.6 0 .3-.3.6-.6.6-.1 0-.2 0-.3-.1.1.5.5.9 1 .9.7-.2 1.1-.9.9-1.6C59.4 38.2 59.1 37.8 58.6 37.7L58.6 37.7zM66.2 37.7c-.3 0-.6.2-.7.4.1 0 .1 0 .2 0 .3 0 .6.3.6.6 0 .3-.3.6-.6.6-.2 0-.3-.1-.4-.3-.1.6.4 1.2 1 1.2.7-.2 1.1-.9.9-1.6C67 38.2 66.6 37.8 66.2 37.7L66.2 37.7zM66.6 45.6c0 0 0-.1 0-.1l0 0c0 0-.1 0-.1 0 0 0 0 0 0 0-1.2.8-2.6 1.2-4.1 1.1-1.4.1-2.9-.3-4.1-1.1h-.1c0 0-.1 0-.1 0 0 0 0 .1 0 .1C60.7 47.3 64 47.3 66.6 45.6L66.6 45.6zM63.5 49.8c0 0 .1-.1.1-.1s0-.1-.1-.1h-2c0 0-.1.1-.1.1s0 .1.1.1H63.5z"/><path fill="#472b29" d="M63.4,72.7c-7.2,0-11.8-1.4-17.3-5.1c-0.2-0.1-0.2-0.3-0.2-0.5c0-0.1,0-0.4,0-0.8 c0-1.7,0.1-5.3,0.5-6.7c0.3-1.6,1.3-2.9,2.8-3.6c0.6-0.3,1.2-0.6,1.9-0.8l5.6-2c0.4-0.1,0.6-0.3,0.7-0.6c0-0.2,0.1-0.9,0.1-1.5 c-0.6-0.4-1.1-0.8-1.6-1.2c-1.1-0.9-1.9-2.2-2.3-3.5c0,0,0-0.1,0-0.1c0-0.2-0.1-0.4-0.3-0.5c-0.2-0.1-0.3-0.2-0.5-0.3 c-0.4-0.2-0.8-0.5-1.1-1c-0.6-1.4-1-2.8-1.2-4.3c0-0.1,0-0.1,0-0.2c0.3-0.9,1.1-1.6,2-1.6l0.3,0c0.2,0,0.3,0,0.5,0 c0-0.8,0-2.3,0.1-3.8c0-0.2,0-0.4,0-0.4c0-3.8,3.9-7,8.8-7.2l0.2,0c5,0.2,8.8,3.3,8.8,7.2c0,0.1,0,0.3,0.1,0.7 c0.1,1.4,0.3,2.9,0.3,3.5c0,0,0.1,0,0.2,0H72c1,0,1.9,0.7,2.1,1.6c0,0.1,0,0.1,0,0.2c-0.1,1.5-0.5,3-1.2,4.3 c-0.3,0.6-0.7,0.8-1.1,1c-0.2,0.1-0.3,0.2-0.5,0.3c-0.1,0.1-0.2,0.3-0.3,0.5c0,0,0,0.1,0,0.1c-0.4,1.4-1.2,2.6-2.3,3.5 c-0.2,0.2-0.9,0.8-1.7,1.4c0,0.5,0.1,1,0.2,1.4c0.1,0.2,0.4,0.4,0.6,0.5c0.3,0.1,6,2.2,7,2.6l0.7,0.3c1.6,0.4,2.9,1.9,3,3.6 c0,0,0,0,0,0c0,0.1,0.3,5.5,0.5,8.8c0,0.2-0.1,0.4-0.3,0.5c-3.2,1.6-9.1,3.5-12.8,3.7C65.1,72.7,64.3,72.7,63.4,72.7z M46.9,66.9 c5.8,3.9,10.7,5.1,19.1,4.8c3.5-0.2,9-1.9,12.1-3.4c-0.2-3.3-0.5-8.3-0.5-8.5c-0.1-1.3-1-2.4-2.3-2.7l-0.8-0.3 c-1-0.4-6.8-2.6-6.9-2.6c-0.6-0.1-1-0.6-1.3-1.1c-0.2-0.7-0.3-1.4-0.2-2.1c0-0.2,0.1-0.3,0.2-0.4c1-0.6,1.7-1.3,1.8-1.4 c0.9-0.8,1.6-1.9,2-3c0.1-0.4,0.3-0.8,0.6-1.1c0.2-0.2,0.4-0.3,0.6-0.4c0.3-0.2,0.6-0.3,0.7-0.6c0.6-1.2,0.9-2.5,1.1-3.9 c-0.2-0.5-0.6-0.8-1.2-0.8h-0.3c-0.5,0-0.8,0-1-0.2c-0.2-0.2-0.2-0.5-0.2-0.7c0-0.7-0.1-2.5-0.3-3.5c0-0.4-0.1-0.7-0.1-0.8 c0-3.3-3.4-6-7.8-6.2l-0.2,0c-4.4,0.2-7.8,2.9-7.8,6.2c0,0,0,0.2,0,0.5c0,0.9-0.1,3.3,0,4c0,0.2,0,0.5-0.2,0.7 c-0.2,0.2-0.5,0.2-0.7,0.1c-0.1,0-0.3,0-0.6,0l-0.3,0c-0.5,0-0.9,0.4-1.1,0.8c0.1,1.4,0.5,2.7,1.1,3.9c0.2,0.3,0.4,0.4,0.7,0.6 c0.2,0.1,0.4,0.2,0.6,0.4c0.4,0.3,0.6,0.7,0.6,1.1c0.4,1.2,1,2.2,2,3c0.6,0.5,1.2,0.9,1.8,1.3c0.1,0.1,0.2,0.2,0.2,0.4 c0,0.7-0.1,1.6-0.2,2c-0.2,0.7-0.7,1.2-1.4,1.3l-5.6,2c-0.6,0.2-1.2,0.4-1.7,0.7c-1.2,0.6-2,1.7-2.3,3c-0.4,1.3-0.4,5-0.4,6.5 C46.9,66.5,46.9,66.7,46.9,66.9z"/><path fill="#895d3d" d="M72.2 42.4l-.6-.1.2-1.3L71 41.3l-.2-.6 1.2-.5c.1 0 .2 0 .3 0 .1.1.1.2.1.3L72.2 42.4zM52.8 42.1l-.2-1.8c0-.1 0-.2.1-.3.1-.1.2-.1.3 0l1.2.5L53.9 41l-.7-.3.1 1.3L52.8 42.1z"/><path fill="#472b29" d="M53.9 45.7C53.9 45.7 53.9 45.7 53.9 45.7c-.1 0-.2-.1-.2-.2l.1-6.9c0-.1.1-.2.2-.2.1 0 .2.1.2.2l-.1 6.9C54.1 45.6 54 45.7 53.9 45.7zM70.9 45.7c-.1 0-.2-.1-.2-.2l-.1-6.9c0-.1.1-.2.2-.2 0 0 0 0 0 0 .1 0 .2.1.2.2l.1 6.9C71.1 45.6 71 45.7 70.9 45.7 70.9 45.7 70.9 45.7 70.9 45.7zM62.4 52.9c-1.7 0-4.6-2.1-4.7-2.2-.1-.1-.1-.2-.1-.3.1-.1.2-.1.3-.1.8.6 3.3 2.2 4.5 2.1 1.5-.2 3.9-1.9 4-1.9.1-.1.3-.1.3.1.1.1.1.3-.1.3-.1.1-2.6 1.8-4.2 2C62.6 52.9 62.5 52.9 62.4 52.9z"/><path fill="#472b29" d="M72.3,27.9c-0.1-0.5-0.5-0.4-1-0.4c-1.5,0.1-1.8-0.4-4.9-2.1c-2.6-1.5-5.8-1.3-8.2,0.4 c-9.5,2.1-3.9,14.3-3.9,14.3s0-6.4,2.9-8.4c4.9,3.2,9.6,3.6,12.4,1.7c1.1,2.4,1.1,6.7,1.1,6.7c1.4-2.6,1.7-5.7,0.9-8.5 C71.2,30.5,72.4,29.4,72.3,27.9z"/></svg>